<svg width="1440" height="823" viewBox="0 0 1440 823" fill="none" xmlns="http://www.w3.org/2000/svg">
<g opacity="0.9">
<path d="M7.62939e-06 790.333L1440 790.333" stroke="#ECF4FE" stroke-width="2"/>
<path d="M7.62939e-06 731.31L1440 731.31" stroke="#ECF4FE" stroke-width="2"/>
<path d="M7.62939e-06 672.288L1440 672.288" stroke="#ECF4FE" stroke-width="2"/>
<path d="M7.62939e-06 613.265L1440 613.265" stroke="#ECF4FE" stroke-width="2"/>
<path d="M7.62939e-06 554.242L1440 554.242" stroke="#ECF4FE" stroke-width="2"/>
<path d="M7.62939e-06 495.22L1440 495.22" stroke="#ECF4FE" stroke-width="2"/>
<path d="M7.62939e-06 436.197L1440 436.197" stroke="#ECF4FE" stroke-width="2"/>
<path d="M7.62939e-06 377.174L1440 377.174" stroke="#ECF4FE" stroke-width="2"/>
<path d="M7.62939e-06 318.152L1440 318.152" stroke="#ECF4FE" stroke-width="2"/>
<path d="M7.62939e-06 259.129L1440 259.129" stroke="#ECF4FE" stroke-width="2"/>
<path d="M7.62939e-06 200.106L1440 200.106" stroke="#ECF4FE" stroke-width="2"/>
<path d="M7.62939e-06 141.084L1440 141.084" stroke="#ECF4FE" stroke-width="2"/>
<path d="M7.62939e-06 82.061L1440 82.061" stroke="#ECF4FE" stroke-width="2"/>
<path d="M-2.28882e-05 23.0383L1440 23.0383" stroke="#ECF4FE" stroke-width="2"/>
<path d="M59.0226 908L59.0226 -151.758" stroke="#ECF4FE" stroke-width="2"/>
<path d="M118.045 908L118.045 -151.758" stroke="#ECF4FE" stroke-width="2"/>
<path d="M177.068 908L177.068 -151.758" stroke="#ECF4FE" stroke-width="2"/>
<path d="M236.09 908L236.09 -151.758" stroke="#ECF4FE" stroke-width="2"/>
<path d="M295.113 908L295.113 -151.758" stroke="#ECF4FE" stroke-width="2"/>
<path d="M354.136 908L354.136 -151.758" stroke="#ECF4FE" stroke-width="2"/>
<path d="M413.158 908L413.158 -151.758" stroke="#ECF4FE" stroke-width="2"/>
<path d="M472.181 908L472.181 -151.758" stroke="#ECF4FE" stroke-width="2"/>
<path d="M531.203 908L531.203 -151.758" stroke="#ECF4FE" stroke-width="2"/>
<path d="M590.226 908L590.226 -151.758" stroke="#ECF4FE" stroke-width="2"/>
<path d="M649.249 908L649.249 -151.758" stroke="#ECF4FE" stroke-width="2"/>
<path d="M708.271 908L708.271 -151.758" stroke="#ECF4FE" stroke-width="2"/>
<path d="M767.294 908L767.294 -151.758" stroke="#ECF4FE" stroke-width="2"/>
<path d="M826.316 908L826.316 -151.758" stroke="#ECF4FE" stroke-width="2"/>
<path d="M885.339 908L885.339 -151.758" stroke="#ECF4FE" stroke-width="2"/>
<path d="M944.362 908L944.362 -151.758" stroke="#ECF4FE" stroke-width="2"/>
<path d="M1003.38 908L1003.38 -151.758" stroke="#ECF4FE" stroke-width="2"/>
<path d="M1062.41 908L1062.41 -151.758" stroke="#ECF4FE" stroke-width="2"/>
<path d="M1121.43 908L1121.43 -151.758" stroke="#ECF4FE" stroke-width="2"/>
<path d="M1180.45 908L1180.45 -151.758" stroke="#ECF4FE" stroke-width="2"/>
<path d="M1239.47 908L1239.47 -151.758" stroke="#ECF4FE" stroke-width="2"/>
<path d="M1298.5 908L1298.5 -151.758" stroke="#ECF4FE" stroke-width="2"/>
<path d="M1357.52 908L1357.52 -151.758" stroke="#ECF4FE" stroke-width="2"/>
<path d="M1416.54 908L1416.54 -151.758" stroke="#ECF4FE" stroke-width="2"/>
</g>
</svg>
